Coordinates
version=1
nRows=15
nColumns=19
inDegrees=yes

Units are S.I. units (second, meters, Newtons, ...)
If the header above contains a line with 'inDegrees', this indicates whether rotational values are in degrees (yes) or radians (no).

endheader
time	pelvis_tilt	pelvis_list	pelvis_rotation	pelvis_tx	pelvis_ty	pelvis_tz	hip_flexion_r	hip_adduction_r	hip_rotation_r	knee_angle_r	knee_angle_r_beta	ankle_angle_r	hip_flexion_l	hip_adduction_l	hip_rotation_l	knee_angle_l	knee_angle_l_beta	ankle_angle_l
     10.64000000	     -0.20968777	     -5.61550681	     -4.82666214	      2.32460956	      1.04516128	      1.02467052	     23.45416128	     10.34753745	     -2.62912646	     19.63369123	      0.34267256	      7.54081870	    -13.90801019	     -6.03495141	     -5.82386654	     43.31605832	      0.75600784	    -14.95703533
     10.64666667	      0.28953390	     -5.78838113	     -4.76914513	      2.32510502	      1.04159265	      1.02460738	     23.05355279	     10.46198627	     -2.86066462	     21.14909186	      0.36912129	      7.19024016	    -13.74257188	     -6.25188316	     -5.23796392	     45.45375500	      0.79331768	    -13.62810828
     10.65333333	      0.43979530	     -5.83339877	     -4.70965984	      2.32543668	      1.03737441	      1.02456795	     23.08488671	     10.46199285	     -3.05391417	     22.87694395	      0.39927799	      6.74286099	    -13.08156778	     -6.34069366	     -4.51033208	     47.67730312	      0.83212592	    -12.15645823
     10.66000000	      0.73816138	     -5.94366154	     -4.68061750	      2.32566772	      1.03303953	      1.02455506	     22.98790845	     10.53659230	     -3.22062526	     24.79027931	      0.43267200	      6.49157639	    -12.57088091	     -6.51433150	     -3.96885834	     49.85876670	      0.87019964	    -10.69053069
     10.66666667	      0.96608387	     -6.05332789	     -4.65457256	      2.32580980	      1.02842249	      1.02458706	     23.01097675	     10.62526033	     -3.37354385	     26.88259813	      0.46918985	      6.42869361	    -11.93179053	     -6.71778085	     -3.48229071	     52.03719251	      0.90822034	     -9.19443154
     10.67333333	      1.17637084	     -6.16836494	     -4.65122947	      2.32576098	      1.02358639	      1.02462481	     23.09877201	     10.73779959	     -3.49141503	     29.13739718	      0.50854352	      6.66737306	    -11.20402312	     -6.97712091	     -3.13188775	     54.23868972	      0.94664372	     -7.71915059
     10.68000000	      1.32211745	     -6.29617340	     -4.66665415	      2.32560628	      1.01856233	      1.02467020	     23.29328770	     10.88854252	     -3.55893994	     31.53316291	      0.55035752	      7.25483495	    -10.35855722	     -7.29986122	     -2.88915752	     56.41673176	      0.98465772	     -6.29553239
     10.68666667	      1.43984772	     -6.44737053	     -4.69994369	      2.32534486	      1.01344340	      1.02472762	     23.52266624	     11.08955476	     -3.57528957	     34.00358695	      0.59347455	      8.18750787	     -9.42199716	     -7.70550929	     -2.75806493	     58.58814739	      1.02255607	     -4.90982321
     10.69333333	      1.47268437	     -6.63223026	     -4.72904077	      2.32497111	      1.00820420	      1.02477759	     23.82927568	     11.34293300	     -3.57279928	     36.48950481	      0.63686200	      9.39546087	     -8.31819392	     -8.22815595	     -2.71323555	     60.77015578	      1.06063931	     -3.57386538
     10.70000000	      1.48257508	     -6.81913983	     -4.76247064	      2.32446195	      1.00301488	      1.02480259	     24.11859689	     11.62018701	     -3.50743458	     38.93290536	      0.67950739	     10.87259697	     -7.11882413	     -8.80746562	     -2.72959965	     62.92692036	      1.09828195	     -2.28518939
     10.70666667	      1.47101556	     -7.05560219	     -4.80103806	      2.32387452	      0.99795002	      1.02485188	     24.34317054	     11.97541954	     -3.38462191	     41.24437979	      0.71985023	     12.51821277	     -5.83486413	     -9.51114852	     -2.81872864	     65.04720494	      1.13528790	     -1.05263159
     10.71333333	      2.00191045	     -7.36526781	     -4.79166643	      2.32327422	      0.99382908	      1.02477498	     23.81101769	     12.36112010	     -3.24636751	     43.29916609	      0.75571301	     14.33337782	     -5.15829421	    -10.30036350	     -3.02129294	     66.95053539	      1.16850728	      0.05972527
     10.72000000	      1.35979434	     -7.58822189	     -4.87007017	      2.32236020	      0.98846015	      1.02486120	     24.53971390	     12.78430646	     -3.02293402	     45.27960796	      0.79027824	     16.01534101	     -2.95107132	    -11.13344517	     -3.04814203	     69.14073118	      1.20673341	      1.24509990
     10.72666667	      1.29092039	     -7.82641275	     -4.88291906	      2.32142509	      0.98422420	      1.02481460	     24.44110680	     13.16523085	     -2.78045603	     46.91799810	      0.81887355	     17.73437841	     -1.37767437	    -11.94562757	     -3.10641445	     71.07029042	      1.24041057	      2.35073766
     10.73333333	      1.25952285	     -8.08131921	     -4.86318788	      2.32036432	      0.98045345	      1.02474456	     24.14432199	     13.54856896	     -2.54330896	     48.26943855	      0.84246063	     19.35535627	      0.22549494	    -12.78310785	     -3.10372079	     72.89177776	      1.27220152	      3.42006900
